<svg width="194" height="193" viewBox="0 0 194 193" fill="none" xmlns="http://www.w3.org/2000/svg">
<path d="M178.75 150.233L83.0653 94.4415L14.6978 133.904L110.893 189.789L178.75 150.233Z" fill="#109EF4"/>
<path d="M26.3505 89.8389V105.275L10.2322 114.731L9.71729 114.433L10.2997 120.268C10.474 120.299 10.0659 121.13 10.2421 121.13C10.7581 121.13 11.2746 120.995 11.7369 120.724L26.3509 112.151V124.002L13.2184 131.618L16.1807 136.756L83.1095 97.9399L123.481 121.274V121.848H124.476L177.766 152.649L180.72 147.507L157.141 133.879V120.995L180.955 134.78C181.255 134.953 181.58 135.049 181.91 135.109V128.482L157.142 114.144V99.5968L180.491 113.113C180.931 113.367 181.42 113.493 181.91 113.503L182.884 107.664L157.142 92.746V69.4739H151.224V89.3206L129.399 76.6864V55.3226H123.482V73.261L101.822 60.7228V38.2459H95.9048V57.2975L86.0669 51.6024V33.2629H80.1495V51.8319L68.0177 58.8574V38.2459H62.1003V62.2843L50.7589 68.8524V49.2048H44.8415V72.2793L32.2675 79.5612V59.7536H26.3505V82.9877L9.77753 92.5853L9.71729 92.5504V98.9699C9.73775 98.9703 9.75707 98.9779 9.77753 98.9779C10.2879 98.9779 10.8002 98.8445 11.2568 98.5801L26.3505 89.8389ZM129.398 104.935L151.224 117.57V130.459L129.398 117.844V104.935ZM129.398 83.5367L151.224 96.171V110.719L129.398 98.0843V83.5367ZM101.821 88.9715L123.481 101.51V114.424L101.821 101.905V88.9715ZM101.821 67.5728L123.481 80.1114V94.6593L101.821 82.1211V67.5728ZM86.0662 79.8511L95.9041 85.5461V98.4847L86.0662 92.7984V79.8511ZM86.0662 58.4524L95.9041 64.1474V78.6958L86.0662 73.0007V58.4524ZM68.0177 87.7067L80.1488 80.5901V92.8015L68.0177 99.8369V87.7067ZM68.0177 65.7082L80.1488 58.6827V73.7142L68.0177 80.8309V65.7082ZM50.7589 97.8316L62.1003 91.1785V103.269L50.7589 109.847V97.8316ZM50.7589 75.7031L62.1003 69.135V84.3026L50.7589 90.9562V75.7031ZM32.2675 108.68L44.8415 101.303V113.278L32.2675 120.57V108.68ZM32.2675 86.412L44.8415 79.13V94.4272L32.2675 101.804V86.412Z" fill="#2B3D91"/>
<path d="M3.97363 79.0372L11.7689 134.6C11.8962 135.504 12.4316 136.3 13.2212 136.757L109.357 192.355C109.36 192.357 109.364 192.358 109.368 192.36C109.422 192.391 109.479 192.415 109.535 192.443C109.597 192.473 109.657 192.506 109.721 192.532C109.727 192.535 109.734 192.536 109.74 192.539C110.091 192.679 110.462 192.75 110.834 192.75C110.835 192.75 110.835 192.75 110.835 192.75C110.836 192.75 110.836 192.75 110.836 192.75C111.341 192.75 111.849 192.623 112.317 192.351L180.726 152.644C180.732 152.641 180.736 152.636 180.741 152.633C180.903 152.538 181.055 152.428 181.195 152.304C181.24 152.265 181.275 152.22 181.317 152.178C181.407 152.089 181.495 151.999 181.574 151.899C181.619 151.84 181.656 151.777 181.697 151.715C181.758 151.622 181.819 151.53 181.871 151.429C181.906 151.361 181.932 151.29 181.961 151.22C182.003 151.12 182.043 151.02 182.074 150.915C182.097 150.836 182.112 150.755 182.129 150.674C182.144 150.605 182.167 150.539 182.176 150.467L189.351 96.3183C189.565 94.6942 188.427 93.203 186.807 92.9868C185.192 92.7684 183.699 93.9138 183.484 95.538L181.484 110.632L169.134 117.784V107.628H163.216V121.211L151.875 127.779V115.877H145.959V131.206L133.385 138.488V125.671H127.468V141.915L113.794 149.834V137.193H107.876V149.765L86.0659 137.14V124.027H80.1486V133.714L58.3228 121.08V101.616H52.4054V117.655L30.7456 105.117V90.009H24.8286V101.692L12.0936 94.3196L9.83342 78.2101L3.97363 79.0372ZM24.8286 108.542V118.577L14.6721 112.698L13.1394 101.775L24.8286 108.542ZM52.4058 124.506V134.541L30.746 122.003V111.967L52.4058 124.506ZM52.4058 152.569L30.7456 140.042V128.853L52.4054 141.391L52.4058 152.569ZM58.3228 144.817L80.1482 157.451V168.613L58.3228 155.991V144.817ZM80.1482 140.566V150.6L58.3228 137.966V127.931L80.1482 140.566ZM107.876 156.617V166.651L86.0656 154.026V143.991L107.876 156.617ZM169.134 152.517V141.637L178.071 136.394L176.501 148.242L169.134 152.517ZM163.217 155.952L151.876 162.535V151.761L163.217 145.108V155.952ZM145.959 165.969L133.385 173.268V162.609L145.959 155.233V165.969ZM127.467 176.703L113.793 184.639V174.103L127.467 166.081V176.703ZM127.467 148.766V159.205L113.793 167.227V156.686L127.467 148.766ZM145.959 138.058V148.357L133.385 155.734V145.34L145.959 138.058ZM163.217 128.063V138.232L151.876 144.886V134.631L163.217 128.063ZM180.501 118.053L179.058 128.939L169.134 134.761V124.636L180.501 118.053ZM107.876 184.649L86.0656 172.036V160.877L107.876 173.502V184.649ZM17.4282 132.34L15.7182 120.154L24.8286 125.428V136.62L17.4282 132.34Z" fill="#2B3D91"/>
<path d="M0 61.5253V77.5621L110.893 141.709L194 93.5986V81.3427V80.3656V77.5618L185.432 72.6019L82.9517 13.2764L0 61.5253ZM20.6739 69.5093L83.0653 33.3405H83.1066L173.381 85.4725L110.948 121.804L20.6739 69.5093Z" fill="#FFD164"/>
<path d="M83.1064 33.3396V17.3028L130.252 44.5283L187.009 77.398V77.5412L173.381 85.4717L83.1064 33.3396Z" fill="#FFB217"/>
<path d="M6.90332 61.5169L53.3584 34.5246L83.0654 17.3028V33.3396L20.6739 69.5085L6.90332 61.5317V61.5169Z" fill="url(#paint0_linear_3695_65245)"/>
<path d="M23.0546 76.1522C23.8711 76.1522 24.6918 75.8627 25.3485 75.2753L53.0856 50.4942L128.727 6.70788C130.378 5.752 130.944 3.63507 129.99 1.98014C129.035 0.32596 126.924 -0.242782 125.275 0.7131L49.3276 44.6772C49.1233 44.795 48.9327 44.934 48.7573 45.0906L20.7565 70.1072C19.333 71.3781 19.2079 73.5664 20.4754 74.9934C21.157 75.7601 22.1028 76.1522 23.0546 76.1522Z" fill="#109EF4"/>
<path d="M99.6107 120.32C100.227 120.32 100.853 120.154 101.417 119.806C103.039 118.804 103.546 116.672 102.546 115.044L65.0317 53.9729L135.386 13.4862L172.882 68.6318C173.956 70.2096 176.107 70.6192 177.679 69.5432C179.254 68.4654 179.661 66.312 178.588 64.7342L139.29 6.93976C138.273 5.44515 136.276 4.99191 134.719 5.88814L58.5077 49.747C57.6969 50.2124 57.1115 50.989 56.8803 51.8966C56.6511 52.8043 56.7973 53.7662 57.2865 54.5637L96.6674 118.675C97.3202 119.735 98.4509 120.32 99.6107 120.32Z" fill="#109EF4"/>
<path d="M64.6814 45.7238C65.6851 45.7238 66.704 45.4669 67.6361 44.9259L120.042 14.5729C122.872 12.9331 123.84 9.30603 122.205 6.46802C120.572 3.63191 116.952 2.65931 114.121 4.29829L61.7149 34.6513C58.8853 36.2911 57.9164 39.9182 59.5518 42.757C60.6479 44.6596 62.6357 45.7238 64.6814 45.7238Z" fill="#FAA700"/>
<path d="M52.9986 50.0459C53.5802 50.0459 54.1717 49.8992 54.7128 49.5862L63.6542 44.439C65.3089 43.4869 65.8791 41.3719 64.9292 39.7151C63.9816 38.0579 61.8722 37.4804 60.2179 38.4366L51.2765 43.5838C49.6218 44.5359 49.0515 46.6509 50.0014 48.3077C50.6391 49.4221 51.8024 50.0459 52.9986 50.0459Z" fill="#109EF4"/>
<path d="M73.6496 50.9617C74.6491 50.9617 75.6604 50.7068 76.5888 50.1719L129.085 19.9598C131.92 18.3295 132.898 14.7028 131.271 11.8618C129.643 9.01691 126.028 8.03481 123.195 9.66961L70.6987 39.8817C67.8633 41.5116 66.885 45.1387 68.5124 47.9797C69.6066 49.8915 71.5982 50.9617 73.6496 50.9617Z" fill="#FFB217"/>
<path d="M60.2296 56.2093C60.8113 56.2093 61.4027 56.0622 61.9438 55.7496L72.6532 49.5865C74.306 48.6363 74.8782 46.5194 73.9282 44.8625C72.9806 43.2053 70.8693 42.6278 69.2169 43.5841L58.5075 49.7472C56.8547 50.6974 56.2826 52.8143 57.2325 54.4711C57.8702 55.585 59.0334 56.2093 60.2296 56.2093Z" fill="#109EF4"/>
<path d="M92.6304 105.501L96.1652 103.562C96.1849 103.551 96.2038 103.54 96.2235 103.53L96.2501 103.515L96.252 103.518C97.358 102.962 98.7645 103.058 100.298 103.945C103.855 106.005 106.739 111.53 106.739 116.287C106.739 117.403 106.575 118.372 106.286 119.184L106.288 119.188L106.284 119.19C105.339 121.831 103.017 122.744 100.297 121.17C96.7392 119.11 93.8554 113.585 93.8554 108.828C93.8554 108.356 93.8914 107.917 93.9459 107.496L92.6304 105.501Z" fill="#FFD164"/>
<path d="M90.5576 110.621C90.5576 115.378 93.4418 120.903 96.9994 122.963C100.557 125.022 103.442 122.836 103.442 118.08C103.442 113.323 100.557 107.798 96.9994 105.738C93.4418 103.678 90.5576 105.865 90.5576 110.621Z" fill="#FFB217"/>
<path d="M169.439 56.6202L172.586 54.9277C172.827 54.7499 173.088 54.6139 173.364 54.5094L173.408 54.4858L173.41 54.49C174.457 54.1128 175.73 54.2674 177.107 55.0645C180.665 57.124 183.549 62.6496 183.549 67.4058C183.549 71.0496 181.854 73.1764 179.462 73.0503L179.439 73.0644L179.429 73.0473C178.707 73.0028 177.927 72.7635 177.107 72.2893C173.549 70.2298 170.665 64.7042 170.665 59.948C170.665 59.5278 170.696 59.1357 170.739 58.7565L169.439 56.6202Z" fill="#FFD164"/>
<path d="M167.367 61.7395C167.367 66.4961 170.251 72.0217 173.809 74.0812C177.367 76.1408 180.251 73.9547 180.251 69.1981C180.251 64.4415 177.367 58.9159 173.809 56.8564C170.251 54.7968 167.367 56.9833 167.367 61.7395Z" fill="#FFB217"/>
<path d="M170.838 63.7495C170.838 65.9428 172.168 68.4906 173.809 69.44C175.449 70.3894 176.779 69.3815 176.779 67.1886C176.779 64.9953 175.449 62.4476 173.809 61.4981C172.168 60.5483 170.838 61.5566 170.838 63.7495Z" fill="white"/>
<path d="M194 77.5616V93.5984L110.894 141.709V125.672L194 77.5616Z" fill="url(#paint1_linear_3695_65245)"/>
<path d="M0 61.5245V77.5609L110.893 141.708V125.671L0 61.5245Z" fill="#FFB217"/>
<path d="M18.7402 62.7084L22.2747 60.7693C22.2944 60.7586 22.3137 60.7472 22.3338 60.737L22.3603 60.7225L22.3618 60.7252C23.4678 60.1698 24.8743 60.2651 26.4078 61.1526C29.9653 63.2122 32.8496 68.7377 32.8496 73.494C32.8496 74.6113 32.6851 75.5805 32.3956 76.3928L32.3991 76.3951L32.3941 76.3981C31.4495 79.0386 29.128 79.9523 26.4078 78.3775C22.8499 76.3179 19.9656 70.7924 19.9656 66.0357C19.9656 65.5635 20.0016 65.1243 20.0566 64.7041L18.7402 62.7084Z" fill="#FFD164"/>
<path d="M16.6675 67.8282C16.6675 72.5848 19.5517 78.1104 23.1093 80.1699C26.6672 82.2295 29.5514 80.0434 29.5514 75.2868C29.5514 70.5302 26.6672 65.0046 23.1093 62.945C19.5517 60.8855 16.6675 63.0719 16.6675 67.8282Z" fill="#FFB217"/>
<path d="M20.1392 69.8375C20.1392 72.0308 21.4691 74.5785 23.1094 75.528C24.7497 76.4774 26.0796 75.4695 26.0796 73.2765C26.0796 71.0833 24.7497 68.5355 23.1094 67.5861C21.4691 66.6363 20.1392 67.6446 20.1392 69.8375Z" fill="white"/>
<path d="M94.0298 112.63C94.0298 114.824 95.3598 117.371 97.0001 118.321C98.6407 119.271 99.9703 118.262 99.9703 116.069C99.9703 113.876 98.6404 111.328 97.0001 110.379C95.3594 109.429 94.0298 110.438 94.0298 112.63Z" fill="white"/>
<defs>
<linearGradient id="paint0_linear_3695_65245" x1="57.5566" y1="24.4827" x2="51.4178" y2="56.8257" gradientUnits="userSpaceOnUse">
<stop stop-color="#FFE17E"/>
<stop offset="1" stop-color="#FFC048"/>
</linearGradient>
<linearGradient id="paint1_linear_3695_65245" x1="166.165" y1="80.1522" x2="157.839" y2="129.551" gradientUnits="userSpaceOnUse">
<stop stop-color="#FFE17E"/>
<stop offset="1" stop-color="#FFC048"/>
</linearGradient>
</defs>
</svg>
