<svg width="18" height="18" viewBox="0 0 18 18" fill="none" xmlns="http://www.w3.org/2000/svg">
<path d="M17.9997 17.9989V11.4064C17.9997 8.16641 17.3022 5.69141 13.5222 5.69141C11.6997 5.69141 10.4847 6.68141 9.98969 7.62641H9.94469V5.98391H6.36719V17.9989H10.1022V12.0364C10.1022 10.4614 10.3947 8.95391 12.3297 8.95391C14.2422 8.95391 14.2647 10.7314 14.2647 12.1264V17.9764H17.9997V17.9989Z" fill="white"/>
<path d="M0.292969 5.98438H4.02797V17.9994H0.292969V5.98438Z" fill="white"/>
<path d="M2.16 0C0.9675 0 0 0.9675 0 2.16C0 3.3525 0.9675 4.3425 2.16 4.3425C3.3525 4.3425 4.32 3.3525 4.32 2.16C4.32 0.9675 3.3525 0 2.16 0Z" fill="white"/>
</svg>
