<svg width="208" height="28" viewBox="0 0 208 28" fill="none" xmlns="http://www.w3.org/2000/svg">
<g filter="url(#filter0_d_4102_33844)">
<path d="M8.54425 0.5V19.5H4V0.5H8.54425Z" fill="#109EF4"/>
<path d="M27.3983 0.5V19.5H23.5426L16.0606 8.53418H15.9413V19.5H11.397V0.5H15.3078L22.7072 11.4473H22.8632V0.5H27.3983Z" fill="#109EF4"/>
<path d="M29.6406 4.22949V0.5H45.5317V4.22949H39.8308V19.5H35.3508V4.22949H29.6406Z" fill="#109EF4"/>
<path d="M47.7511 19.5V0.5H60.8606V4.22949H52.2953V8.12598H60.1904V11.8647H52.2953V15.7705H60.8606V19.5H47.7511Z" fill="#109EF4"/>
<path d="M68.3058 0.5L71.7392 6.50244H71.8861L75.3563 0.5H80.4422L74.7687 10L80.6258 19.5H75.4114L71.8861 13.4326H71.7392L68.214 19.5H63.0363L68.8658 10L63.1832 0.5H68.3058Z" fill="#109EF4"/>
<path d="M90.529 8.25586V11.7441H81.8261V8.25586H90.529Z" fill="#109EF4"/>
<path d="M93.6985 0.5H99.3261L104.1 12.2637H104.32L109.094 0.5H114.721V19.5H110.297V7.8291H110.14L105.624 19.3794H102.796L98.2795 7.76416H98.1234V19.5H93.6985V0.5Z" fill="#109EF4"/>
<path d="M121.623 19.5H116.739L123.082 0.5H129.132L135.476 19.5H130.592L126.176 5.28711H126.029L121.623 19.5ZM120.971 12.0225H131.179V15.5107H120.971V12.0225Z" fill="#109EF4"/>
<path d="M137.5 19.5V0.5H145.267C146.674 0.5 147.889 0.756673 148.911 1.27002C149.939 1.77718 150.732 2.507 151.289 3.45947C151.846 4.40576 152.124 5.52832 152.124 6.82715C152.124 8.14453 151.84 9.264 151.271 10.1855C150.701 11.1009 149.894 11.7998 148.847 12.2822C147.8 12.7585 146.561 12.9966 145.129 12.9966H140.217V9.37842H144.284C144.97 9.37842 145.542 9.28874 146.001 9.10938C146.466 8.92383 146.818 8.64551 147.057 8.27441C147.295 7.89714 147.415 7.41471 147.415 6.82715C147.415 6.23958 147.295 5.75407 147.057 5.37061C146.818 4.98096 146.466 4.69027 146.001 4.49854C145.536 4.30062 144.964 4.20166 144.284 4.20166H142.044V19.5H137.5ZM148.085 10.8164L152.767 19.5H147.81L143.219 10.8164H148.085Z" fill="#109EF4"/>
<path d="M154.617 19.5V0.5H159.161V8.53418H159.409L165.624 0.5H170.976L164.311 8.97949L171.095 19.5H165.661L160.979 12.0317L159.161 14.3511V19.5H154.617Z" fill="#109EF4"/>
<path d="M172.769 19.5V0.5H185.878V4.22949H177.313V8.12598H185.208V11.8647H177.313V15.7705H185.878V19.5H172.769Z" fill="#109EF4"/>
<path d="M188.109 4.22949V0.5H204V4.22949H198.299V19.5H193.819V4.22949H188.109Z" fill="#109EF4"/>
</g>
<defs>
<filter id="filter0_d_4102_33844" x="0" y="0.5" width="208" height="27" filterUnits="userSpaceOnUse" color-interpolation-filters="sRGB">
<feFlood flood-opacity="0" result="BackgroundImageFix"/>
<feColorMatrix in="SourceAlpha" type="matrix" values="0 0 0 0 0 0 0 0 0 0 0 0 0 0 0 0 0 0 127 0" result="hardAlpha"/>
<feOffset dy="4"/>
<feGaussianBlur stdDeviation="2"/>
<feComposite in2="hardAlpha" operator="out"/>
<feColorMatrix type="matrix" values="0 0 0 0 0 0 0 0 0 0 0 0 0 0 0 0 0 0 0.25 0"/>
<feBlend mode="normal" in2="BackgroundImageFix" result="effect1_dropShadow_4102_33844"/>
<feBlend mode="normal" in="SourceGraphic" in2="effect1_dropShadow_4102_33844" result="shape"/>
</filter>
</defs>
</svg>
