<svg width="18" height="19" viewBox="0 0 18 19" fill="none" xmlns="http://www.w3.org/2000/svg">
<path d="M14.9172 17.6975C14.8497 17.6975 14.7822 17.6975 14.7072 17.69C12.2847 17.4275 9.92965 16.5875 7.89715 15.2675C6.00715 14.0675 4.37215 12.4325 3.17215 10.5425C1.85215 8.5025 1.01215 6.14 0.757154 3.7175C0.727154 3.395 0.764654 3.0875 0.862154 2.7875C0.959654 2.4875 1.12465 2.2175 1.33465 1.985C1.54465 1.7525 1.79965 1.5725 2.08465 1.445C2.37715 1.3175 2.68465 1.25 2.99965 1.25H5.24965C5.77465 1.25 6.31465 1.4375 6.73465 1.7975C7.14715 2.15 7.41715 2.645 7.49215 3.185C7.58215 3.8525 7.74715 4.5125 7.97965 5.135C8.12965 5.54 8.16715 5.975 8.06965 6.395C7.97965 6.815 7.76965 7.205 7.46965 7.505L6.92965 8.045C7.81465 9.425 8.98465 10.6025 10.3722 11.4875L10.9122 10.9475C11.2197 10.64 11.6097 10.43 12.0297 10.3475C12.4497 10.2575 12.8847 10.2875 13.2897 10.4375C13.9122 10.67 14.5722 10.835 15.2322 10.925C15.7872 11 16.2822 11.2775 16.6422 11.6975C16.9947 12.1175 17.1897 12.65 17.1747 13.1975V15.44C17.1747 15.755 17.1147 16.055 16.9872 16.3475C16.8597 16.6325 16.6722 16.895 16.4472 17.105C16.2147 17.315 15.9447 17.48 15.6447 17.5775C15.4047 17.66 15.1647 17.6975 14.9172 17.6975ZM5.26465 2.75H5.25715H2.99965C2.89465 2.75 2.79715 2.7725 2.69965 2.8175C2.60215 2.855 2.51215 2.915 2.44465 2.99C2.36965 3.065 2.31715 3.155 2.28715 3.26C2.25715 3.3575 2.24215 3.4625 2.24965 3.5675C2.48215 5.75 3.23965 7.88 4.43215 9.7325C5.51965 11.4425 6.99715 12.92 8.70715 14.0075C10.5522 15.2075 12.6822 15.9575 14.8572 16.1975C14.9472 16.205 15.0522 16.19 15.1497 16.16C15.2472 16.13 15.3372 16.07 15.4197 16.0025C15.5022 15.935 15.5622 15.845 15.5997 15.7475C15.6447 15.65 15.6597 15.545 15.6597 15.44V13.19C15.6597 13.1825 15.6597 13.175 15.6597 13.175C15.6672 12.9875 15.5997 12.815 15.4797 12.6725C15.3597 12.53 15.1947 12.44 15.0147 12.4175C14.2497 12.32 13.4847 12.125 12.7497 11.855C12.6147 11.8025 12.4647 11.795 12.3297 11.825C12.1872 11.855 12.0597 11.9225 11.9547 12.0275L11.0097 12.98C10.7697 13.22 10.4022 13.265 10.1097 13.1C8.11465 11.9675 6.46465 10.31 5.32465 8.3225C5.16715 8.0075 5.21215 7.64 5.45215 7.4L6.40465 6.4475C6.50215 6.35 6.56965 6.2225 6.59965 6.08C6.62965 5.9375 6.62215 5.795 6.56965 5.66C6.29215 4.925 6.10465 4.16 5.99965 3.3875C5.97715 3.215 5.88715 3.05 5.75215 2.93C5.61715 2.8175 5.44465 2.75 5.26465 2.75Z" fill="#109EF4"/>
</svg>
