<svg width="28" height="21" viewBox="0 0 28 21" fill="none" xmlns="http://www.w3.org/2000/svg">
<rect y="0.5" width="28" height="20" rx="2" fill="white"/>
<mask id="mask0_331_20664" style="mask-type:luminance" maskUnits="userSpaceOnUse" x="0" y="0" width="28" height="21">
<rect y="0.5" width="28" height="20" rx="2" fill="white"/>
</mask>
<g mask="url(#mask0_331_20664)">
<path fill-rule="evenodd" clip-rule="evenodd" d="M28 0.5H0V1.83333H28V0.5ZM28 3.16667H0V4.5H28V3.16667ZM0 5.83333H28V7.16667H0V5.83333ZM28 8.5H0V9.83333H28V8.5ZM0 11.1667H28V12.5H0V11.1667ZM28 13.8333H0V15.1667H28V13.8333ZM0 16.5H28V17.8333H0V16.5ZM28 19.1667H0V20.5H28V19.1667Z" fill="#D02F44"/>
<rect y="0.5" width="12" height="9.33333" fill="#46467F"/>
<g filter="url(#filter0_d_331_20664)">
<path fill-rule="evenodd" clip-rule="evenodd" d="M2.66683 2.49998C2.66683 2.86817 2.36835 3.16665 2.00016 3.16665C1.63197 3.16665 1.3335 2.86817 1.3335 2.49998C1.3335 2.13179 1.63197 1.83331 2.00016 1.83331C2.36835 1.83331 2.66683 2.13179 2.66683 2.49998ZM5.3335 2.49998C5.3335 2.86817 5.03502 3.16665 4.66683 3.16665C4.29864 3.16665 4.00016 2.86817 4.00016 2.49998C4.00016 2.13179 4.29864 1.83331 4.66683 1.83331C5.03502 1.83331 5.3335 2.13179 5.3335 2.49998ZM7.3335 3.16665C7.70169 3.16665 8.00016 2.86817 8.00016 2.49998C8.00016 2.13179 7.70169 1.83331 7.3335 1.83331C6.96531 1.83331 6.66683 2.13179 6.66683 2.49998C6.66683 2.86817 6.96531 3.16665 7.3335 3.16665ZM10.6668 2.49998C10.6668 2.86817 10.3684 3.16665 10.0002 3.16665C9.63197 3.16665 9.3335 2.86817 9.3335 2.49998C9.3335 2.13179 9.63197 1.83331 10.0002 1.83331C10.3684 1.83331 10.6668 2.13179 10.6668 2.49998ZM3.3335 4.49998C3.70169 4.49998 4.00016 4.2015 4.00016 3.83331C4.00016 3.46512 3.70169 3.16665 3.3335 3.16665C2.96531 3.16665 2.66683 3.46512 2.66683 3.83331C2.66683 4.2015 2.96531 4.49998 3.3335 4.49998ZM6.66683 3.83331C6.66683 4.2015 6.36835 4.49998 6.00016 4.49998C5.63197 4.49998 5.3335 4.2015 5.3335 3.83331C5.3335 3.46512 5.63197 3.16665 6.00016 3.16665C6.36835 3.16665 6.66683 3.46512 6.66683 3.83331ZM8.66683 4.49998C9.03502 4.49998 9.3335 4.2015 9.3335 3.83331C9.3335 3.46512 9.03502 3.16665 8.66683 3.16665C8.29864 3.16665 8.00016 3.46512 8.00016 3.83331C8.00016 4.2015 8.29864 4.49998 8.66683 4.49998ZM10.6668 5.16665C10.6668 5.53484 10.3684 5.83331 10.0002 5.83331C9.63197 5.83331 9.3335 5.53484 9.3335 5.16665C9.3335 4.79846 9.63197 4.49998 10.0002 4.49998C10.3684 4.49998 10.6668 4.79846 10.6668 5.16665ZM7.3335 5.83331C7.70169 5.83331 8.00016 5.53484 8.00016 5.16665C8.00016 4.79846 7.70169 4.49998 7.3335 4.49998C6.96531 4.49998 6.66683 4.79846 6.66683 5.16665C6.66683 5.53484 6.96531 5.83331 7.3335 5.83331ZM5.3335 5.16665C5.3335 5.53484 5.03502 5.83331 4.66683 5.83331C4.29864 5.83331 4.00016 5.53484 4.00016 5.16665C4.00016 4.79846 4.29864 4.49998 4.66683 4.49998C5.03502 4.49998 5.3335 4.79846 5.3335 5.16665ZM2.00016 5.83331C2.36835 5.83331 2.66683 5.53484 2.66683 5.16665C2.66683 4.79846 2.36835 4.49998 2.00016 4.49998C1.63197 4.49998 1.3335 4.79846 1.3335 5.16665C1.3335 5.53484 1.63197 5.83331 2.00016 5.83331ZM4.00016 6.49998C4.00016 6.86817 3.70169 7.16665 3.3335 7.16665C2.96531 7.16665 2.66683 6.86817 2.66683 6.49998C2.66683 6.13179 2.96531 5.83331 3.3335 5.83331C3.70169 5.83331 4.00016 6.13179 4.00016 6.49998ZM6.00016 7.16665C6.36835 7.16665 6.66683 6.86817 6.66683 6.49998C6.66683 6.13179 6.36835 5.83331 6.00016 5.83331C5.63197 5.83331 5.3335 6.13179 5.3335 6.49998C5.3335 6.86817 5.63197 7.16665 6.00016 7.16665ZM9.3335 6.49998C9.3335 6.86817 9.03502 7.16665 8.66683 7.16665C8.29864 7.16665 8.00016 6.86817 8.00016 6.49998C8.00016 6.13179 8.29864 5.83331 8.66683 5.83331C9.03502 5.83331 9.3335 6.13179 9.3335 6.49998ZM10.0002 8.49998C10.3684 8.49998 10.6668 8.2015 10.6668 7.83331C10.6668 7.46512 10.3684 7.16665 10.0002 7.16665C9.63197 7.16665 9.3335 7.46512 9.3335 7.83331C9.3335 8.2015 9.63197 8.49998 10.0002 8.49998ZM8.00016 7.83331C8.00016 8.2015 7.70169 8.49998 7.3335 8.49998C6.96531 8.49998 6.66683 8.2015 6.66683 7.83331C6.66683 7.46512 6.96531 7.16665 7.3335 7.16665C7.70169 7.16665 8.00016 7.46512 8.00016 7.83331ZM4.66683 8.49998C5.03502 8.49998 5.3335 8.2015 5.3335 7.83331C5.3335 7.46512 5.03502 7.16665 4.66683 7.16665C4.29864 7.16665 4.00016 7.46512 4.00016 7.83331C4.00016 8.2015 4.29864 8.49998 4.66683 8.49998ZM2.66683 7.83331C2.66683 8.2015 2.36835 8.49998 2.00016 8.49998C1.63197 8.49998 1.3335 8.2015 1.3335 7.83331C1.3335 7.46512 1.63197 7.16665 2.00016 7.16665C2.36835 7.16665 2.66683 7.46512 2.66683 7.83331Z" fill="url(#paint0_linear_331_20664)"/>
</g>
</g>
<defs>
<filter id="filter0_d_331_20664" x="1.3335" y="1.83331" width="9.3335" height="7.66669" filterUnits="userSpaceOnUse" color-interpolation-filters="sRGB">
<feFlood flood-opacity="0" result="BackgroundImageFix"/>
<feColorMatrix in="SourceAlpha" type="matrix" values="0 0 0 0 0 0 0 0 0 0 0 0 0 0 0 0 0 0 127 0" result="hardAlpha"/>
<feOffset dy="1"/>
<feColorMatrix type="matrix" values="0 0 0 0 0 0 0 0 0 0 0 0 0 0 0 0 0 0 0.06 0"/>
<feBlend mode="normal" in2="BackgroundImageFix" result="effect1_dropShadow_331_20664"/>
<feBlend mode="normal" in="SourceGraphic" in2="effect1_dropShadow_331_20664" result="shape"/>
</filter>
<linearGradient id="paint0_linear_331_20664" x1="1.3335" y1="1.83331" x2="1.3335" y2="8.49998" gradientUnits="userSpaceOnUse">
<stop stop-color="white"/>
<stop offset="1" stop-color="#F0F0F0"/>
</linearGradient>
</defs>
</svg>
