<svg width="42" height="42" viewBox="0 0 42 42" fill="none" xmlns="http://www.w3.org/2000/svg">
<rect width="42" height="42" rx="10" fill="white"/>
<path d="M20.7224 20.2222C19.6321 20.2222 18.5864 19.7891 17.8154 19.0181C17.0445 18.2471 16.6113 17.2014 16.6113 16.1111C16.6113 15.0208 17.0445 13.9751 17.8154 13.2041C18.5864 12.4331 19.6321 12 20.7224 12C21.8128 12 22.8585 12.4331 23.6294 13.2041C24.4004 13.9751 24.8336 15.0208 24.8336 16.1111C24.8336 17.2014 24.4004 18.2471 23.6294 19.0181C22.8585 19.7891 21.8128 20.2222 20.7224 20.2222Z" stroke="#109EF4" stroke-width="1.5" stroke-linecap="round"/>
<path d="M12.5 30.5V29.4722C12.5 27.8367 13.1497 26.2682 14.3062 25.1117C15.4626 23.9552 17.0312 23.3055 18.6667 23.3055H22.7778C24.4133 23.3055 25.9818 23.9552 27.1383 25.1117C28.2947 26.2682 28.9444 27.8367 28.9444 29.4722V30.5" stroke="#109EF4" stroke-width="1.5" stroke-linecap="round"/>
</svg>
