<svg width="28" height="21" viewBox="0 0 28 21" fill="none" xmlns="http://www.w3.org/2000/svg">
<rect x="0.25" y="0.75" width="27.5" height="19.5" rx="1.75" fill="white" stroke="#F5F5F5" stroke-width="0.5"/>
<mask id="mask0_331_20660" style="mask-type:luminance" maskUnits="userSpaceOnUse" x="0" y="0" width="28" height="21">
<rect x="0.25" y="0.75" width="27.5" height="19.5" rx="1.75" fill="white" stroke="white" stroke-width="0.5"/>
</mask>
<g mask="url(#mask0_331_20660)">
<path fill-rule="evenodd" clip-rule="evenodd" d="M0 7.16667H28V0.5H0V7.16667Z" fill="#04AAC8"/>
<path fill-rule="evenodd" clip-rule="evenodd" d="M0 20.5H28V13.8333H0V20.5Z" fill="#23C840"/>
<path fill-rule="evenodd" clip-rule="evenodd" d="M4.6665 5.83331C5.07778 5.83331 5.46007 5.70917 5.77793 5.49631C5.7411 5.49874 5.70395 5.49998 5.6665 5.49998C4.74603 5.49998 3.99984 4.75379 3.99984 3.83331C3.99984 2.91284 4.74603 2.16665 5.6665 2.16665C5.70395 2.16665 5.7411 2.16788 5.77793 2.17031C5.46007 1.95746 5.07778 1.83331 4.6665 1.83331C3.56193 1.83331 2.6665 2.72874 2.6665 3.83331C2.6665 4.93788 3.56193 5.83331 4.6665 5.83331ZM7.99984 5.16665C7.99984 5.53484 7.70136 5.83331 7.33317 5.83331C6.96498 5.83331 6.6665 5.53484 6.6665 5.16665C6.6665 4.79846 6.96498 4.49998 7.33317 4.49998C7.70136 4.49998 7.99984 4.79846 7.99984 5.16665ZM9.99984 3.16665C10.368 3.16665 10.6665 2.86817 10.6665 2.49998C10.6665 2.13179 10.368 1.83331 9.99984 1.83331C9.63165 1.83331 9.33317 2.13179 9.33317 2.49998C9.33317 2.86817 9.63165 3.16665 9.99984 3.16665ZM13.3332 2.49998C13.3332 2.86817 13.0347 3.16665 12.6665 3.16665C12.2983 3.16665 11.9998 2.86817 11.9998 2.49998C11.9998 2.13179 12.2983 1.83331 12.6665 1.83331C13.0347 1.83331 13.3332 2.13179 13.3332 2.49998ZM12.6665 5.83331C13.0347 5.83331 13.3332 5.53484 13.3332 5.16665C13.3332 4.79846 13.0347 4.49998 12.6665 4.49998C12.2983 4.49998 11.9998 4.79846 11.9998 5.16665C11.9998 5.53484 12.2983 5.83331 12.6665 5.83331ZM10.6665 5.16665C10.6665 5.53484 10.368 5.83331 9.99984 5.83331C9.63165 5.83331 9.33317 5.53484 9.33317 5.16665C9.33317 4.79846 9.63165 4.49998 9.99984 4.49998C10.368 4.49998 10.6665 4.79846 10.6665 5.16665Z" fill="white"/>
</g>
</svg>
